<svg xmlns="http://www.w3.org/2000/svg" viewBox="928 167 84 84" fill="none">
  <rect width="77" height="77" rx="10" fill="white" transform="matrix(0.99802 -0.06288 0.06288 0.99802 928.9986 172.8450)"/>
  <path fill="#00CC99" d="M 986.2000122070312 217.9589996337891 L 985.1389770507812 201.1179962158203 L 953.7020263671875 203.0989990234375 L 954.051025390625 208.6410064697266 C 955.8759765625 207.5859985351562 957.9840087890625 207.1280059814453 960.0819702148438 207.3289947509766 C 962.1799926757812 207.5299987792969 964.1630249023438 208.3809967041016 965.7540283203125 209.7630004882812 C 967.344970703125 211.1450042724609 968.4660034179688 212.9889984130859 968.958984375 215.0379943847656 C 969.4520263671875 217.0870056152344 969.2940063476562 219.2389984130859 968.5059814453125 221.1929931640625 L 972.22998046875 224.4759979248047 L 980.9400024414062 223.927001953125 C 982.4290161132812 223.8329925537109 983.8200073242188 223.1519927978516 984.8060302734375 222.0330047607422 C 985.7930297851562 220.9129943847656 986.2940063476562 219.447998046875 986.2000122070312 217.9589996337891 Z M 984.927001953125 197.7489929199219 C 984.8330078125 196.2610015869141 984.1519775390625 194.8699951171875 983.0330200195312 193.8829956054688 C 981.9130249023438 192.8970031738281 980.447998046875 192.3950042724609 978.958984375 192.4889984130859 L 958.7490234375 193.7630004882812 C 957.260986328125 193.8560028076172 955.8699951171875 194.5379943847656 954.8829956054688 195.6569976806641 C 953.89697265625 196.7760009765625 953.39501953125 198.2409973144531 953.489013671875 199.7299957275391 L 953.5599975585938 200.8529968261719 L 984.9979858398438 198.8719940185547 L 984.927001953125 197.7489929199219 Z M 964.2160034179688 223.4089965820312 C 962.698974609375 224.6999969482422 960.75 225.3679962158203 958.760986328125 225.2790069580078 C 956.77197265625 225.1900024414062 954.8909912109375 224.3509979248047 953.4949951171875 222.9309997558594 C 952.0999755859375 221.5110015869141 951.2940063476562 219.6150054931641 951.239990234375 217.625 C 951.1859741210938 215.6349945068359 951.8880004882812 213.697998046875 953.2050170898438 212.2039947509766 C 954.52099609375 210.7109985351562 956.35498046875 209.77099609375 958.3359985351562 209.5749969482422 C 960.3170166015625 209.3789978027344 962.2990112304688 209.9400024414062 963.8829956054688 211.14599609375 C 965.4669799804688 212.3529968261719 966.5360107421875 214.1139984130859 966.8729858398438 216.0760040283203 C 967.2109985351562 218.0379943847656 966.7930297851562 220.0549926757812 965.7030029296875 221.7220001220703 L 971.7899780273438 227.0870056152344 C 972.0139770507812 227.2839965820312 972.1510009765625 227.5630035400391 972.1699829101562 227.8600006103516 C 972.1890258789062 228.1580047607422 972.0889892578125 228.4519958496094 971.8909912109375 228.6759948730469 C 971.6939697265625 228.8999938964844 971.416015625 229.0359954833984 971.1179809570312 229.0549926757812 C 970.8200073242188 229.0740051269531 970.5269775390625 228.9739990234375 970.302978515625 228.7769927978516 L 964.2160034179688 223.4120025634766 L 964.2160034179688 223.4089965820312 Z M 964.7260131835938 217.0579986572266 C 964.6320190429688 215.5690002441406 963.9509887695312 214.1779937744141 962.8319702148438 213.1920013427734 C 961.7130126953125 212.2050018310547 960.2470092773438 211.7039947509766 958.7589721679688 211.7980041503906 C 957.27001953125 211.8919982910156 955.8790283203125 212.572998046875 954.8930053710938 213.6920013427734 C 953.906005859375 214.8110046386719 953.405029296875 216.2760009765625 953.4979858398438 217.7649993896484 C 953.5919799804688 219.2539978027344 954.2739868164062 220.6450042724609 955.3930053710938 221.6309967041016 C 956.5120239257812 222.6179962158203 957.9769897460938 223.1190032958984 959.4660034179688 223.0260009765625 C 960.9550170898438 222.9320068359375 962.3460083007812 222.25 963.3319702148438 221.1309967041016 C 964.3179931640625 220.0119934082031 964.8200073242188 218.5469970703125 964.7260131835938 217.0579986572266 Z"/>
</svg>
