<svg xmlns="http://www.w3.org/2000/svg" viewBox="1275 287 89 89" fill="none">
  <rect width="77" height="77" rx="10" fill="white" transform="matrix(0.99063 0.13655 -0.13655 0.99063 1286.5076 287.9945)"/>
  <path fill="#00CC99" d="M 1331.2099609375 352.7090148925781 L 1302.260009765625 348.718994140625 C 1300.930053710938 348.5350036621094 1299.849975585938 347.9190063476562 1299.0400390625 346.8699951171875 C 1298.219970703125 345.8210144042969 1297.900024414062 344.6470031738281 1298.079956054688 343.3479919433594 L 1301.969970703125 315.114990234375 C 1302.150024414062 313.8160095214844 1302.780029296875 312.7720031738281 1303.849975585938 311.9830017089844 C 1304.910034179688 311.1940002441406 1306.1099853515625 310.8909912109375 1307.449951171875 311.0740051269531 L 1336.390014648438 315.0650024414062 C 1337.72998046875 315.2479858398438 1338.800048828125 315.864990234375 1339.619995117188 316.9140014648438 C 1340.430053710938 317.9620056152344 1340.75 319.135986328125 1340.569946289062 320.4349975585938 L 1336.680053710938 348.6679992675781 C 1336.5 349.9670104980469 1335.880004882812 351.010986328125 1334.81005859375 351.7999877929688 C 1333.739990234375 352.5899963378906 1332.5400390625 352.8919982910156 1331.2099609375 352.7090148925781 Z M 1310.949951171875 339.1289978027344 C 1311 338.8099975585938 1310.920043945312 338.5180053710938 1310.7099609375 338.2520141601562 C 1310.5 337.9859924316406 1310.239990234375 337.8309936523438 1309.910034179688 337.7860107421875 L 1307.5 337.4540100097656 C 1307.170043945312 337.4089965820312 1306.869995117188 337.4859924316406 1306.599975585938 337.6860046386719 C 1306.329956054688 337.885986328125 1306.170043945312 338.1449890136719 1306.130004882812 338.4639892578125 L 1305.47998046875 343.1690063476562 C 1305.43994140625 343.4880065917969 1305.52001953125 343.7799987792969 1305.719970703125 344.0459899902344 C 1305.930053710938 344.3110046386719 1306.199951171875 344.4670104980469 1306.52001953125 344.5119934082031 L 1308.93994140625 344.843994140625 C 1309.260009765625 344.8890075683594 1309.56005859375 344.81201171875 1309.829956054688 344.6119995117188 C 1310.099975585938 344.4119873046875 1310.260009765625 344.1530151367188 1310.31005859375 343.8340148925781 L 1310.949951171875 339.1289978027344 Z M 1321.900024414062 331.0480041503906 C 1321.93994140625 330.72900390625 1321.859985351562 330.43701171875 1321.660034179688 330.1709899902344 C 1321.449951171875 329.906005859375 1321.180053710938 329.75 1320.859985351562 329.7049865722656 L 1318.43994140625 329.3729858398438 C 1318.119995117188 329.3280029296875 1317.8199462890625 329.4049987792969 1317.550048828125 329.6050109863281 C 1317.280029296875 329.8049926757812 1317.119995117188 330.0639953613281 1317.079956054688 330.3829956054688 L 1315.130004882812 344.4989929199219 C 1315.089965820312 344.8179931640625 1315.170043945312 345.1099853515625 1315.369995117188 345.3760070800781 C 1315.579956054688 345.6409912109375 1315.849975585938 345.7969970703125 1316.1700439453125 345.8420104980469 L 1318.5899658203125 346.1740112304688 C 1318.910034179688 346.218994140625 1319.2099609375 346.1419982910156 1319.47998046875 345.9419860839844 C 1319.75 345.7420043945312 1319.910034179688 345.4830017089844 1319.949951171875 345.1640014648438 L 1321.900024414062 331.0480041503906 Z M 1333.1700439453125 320.614013671875 C 1333.219970703125 320.2959899902344 1333.1300048828125 320.0029907226562 1332.9300537109375 319.7380065917969 C 1332.719970703125 319.4719848632812 1332.449951171875 319.3169860839844 1332.1300048828125 319.27099609375 L 1329.7099609375 318.9389953613281 C 1329.3900146484375 318.8940124511719 1329.0899658203125 318.9710083007812 1328.8199462890625 319.1709899902344 C 1328.550048828125 319.3710021972656 1328.3900146484375 319.6300048828125 1328.3499755859375 319.9490051269531 L 1324.780029296875 345.8290100097656 C 1324.739990234375 346.1480102539062 1324.8199462890625 346.4400024414062 1325.02001953125 346.7059936523438 C 1325.22998046875 346.9719848632812 1325.5 347.1270141601562 1325.8199462890625 347.1719970703125 L 1328.239990234375 347.5050048828125 C 1328.56005859375 347.5499877929688 1328.8599853515625 347.4719848632812 1329.1300048828125 347.2720031738281 C 1329.4000244140625 347.0719909667969 1329.56005859375 346.81298828125 1329.5999755859375 346.4939880371094 L 1333.1700439453125 320.614013671875 Z"/>
</svg>
