<svg xmlns="http://www.w3.org/2000/svg" viewBox="900 433 87 87" fill="none">
  <rect width="77" height="77" rx="10" fill="white" transform="matrix(0.99379 -0.11123 0.11123 0.99379 900.9955 442.5635)"/>
  <path fill="#00CC99" d="M 959.7349853515625 463.9639892578125 C 959.6640014648438 463.6340026855469 959.510986328125 463.3269958496094 959.2899780273438 463.0719909667969 C 959.0679931640625 462.8169860839844 958.7860107421875 462.6220092773438 958.468994140625 462.5060119628906 L 941.677978515625 456.3349914550781 C 941.3870239257812 456.2279968261719 941.073974609375 456.1900024414062 940.7650146484375 456.2250061035156 C 940.4559936523438 456.2590026855469 940.1599731445312 456.364990234375 939.8989868164062 456.5350036621094 L 924.8880004882812 466.2650146484375 C 924.6060180664062 466.4490051269531 924.3740234375 466.7009887695312 924.2150268554688 466.9989929199219 C 924.0560302734375 467.2959899902344 923.9739990234375 467.6289978027344 923.97802734375 467.9660034179688 C 923.97998046875 468.1820068359375 924.4630126953125 489.5809936523438 944.3889770507812 495.8970031738281 C 944.656005859375 495.9830017089844 944.93798828125 496.0119934082031 945.2160034179688 495.9809875488281 C 945.4940185546875 495.9500122070312 945.7630004882812 495.8599853515625 946.0029907226562 495.7170104980469 C 964.0399780273438 485.1510009765625 959.781005859375 464.177001953125 959.7349853515625 463.9639892578125 Z M 944.7479858398438 491.7980041503906 L 942.9910278320312 476.1019897460938 L 930.0910034179688 477.5459899902344 C 929.0029907226562 474.8070068359375 928.31201171875 471.9259948730469 928.0390014648438 468.9909973144531 L 941.2369995117188 460.4360046386719 L 942.9910278320312 476.1019897460938 L 955.8309936523438 474.6650085449219 C 954.9320068359375 480.2799987792969 952.1959838867188 487.10400390625 944.7479858398438 491.7980041503906 Z"/>
</svg>
